<svg xmlns="http://www.w3.org/2000/svg" viewBox="0 0 105.21 91.51"><defs><style>.a,.b{fill:#fff;stroke:#1d1d1b;stroke-miterlimit:10;}.a{stroke-width:4px;}.b{stroke-width:6px;}</style></defs><path class="a" d="M222.06,306.77" transform="translate(-195.64 -367.53)"/><path class="b" d="M248.24,370.53c-27.39,0-49.6,19-49.6,42.52,0,11,4.9,21.08,12.93,28.63-3.89,13.28-8.5,14-9.76,13.94,13.6,2.07,18.3-4,19.71-6.75a55.45,55.45,0,0,0,26.72,6.7c27.4,0,49.61-19,49.61-42.52S275.64,370.53,248.24,370.53Z" transform="translate(-195.64 -367.53)"/><path class="b" d="M201.81,455.62l-.34-.05A1.51,1.51,0,0,0,201.81,455.62Z" transform="translate(-195.64 -367.53)"/></svg>